<svg width="64" height="64" viewBox="0 0 64 64" fill="none" xmlns="http://www.w3.org/2000/svg">
<g opacity="0.86">
<path d="M60.9032 14H25.8067C24.0994 14 22.71 15.346 22.71 17V61C22.71 62.654 24.0994 64 25.8067 64H52.1291C52.2664 64 52.3975 63.947 52.4945 63.854L63.8493 52.854C63.9453 52.76 64 52.633 64 52.5V17C64 15.346 62.6106 14 60.9032 14ZM62.9677 52.293L51.9144 63H25.8067C24.6681 63 23.7422 62.103 23.7422 61V17C23.7422 15.897 24.6681 15 25.8067 15H60.9032C62.0418 15 62.9677 15.897 62.9677 17V52.293Z" fill="#2C5282"/>
<path d="M63.9611 52.309C63.8816 52.122 63.6927 52 63.4842 52H54.71C53.0027 52 51.6133 53.346 51.6133 55V63.5C51.6133 63.702 51.7392 63.885 51.9322 63.962C51.9962 63.987 52.0633 64 52.1294 64C52.2636 64 52.3957 63.949 52.4948 63.854L63.8496 52.854C63.9972 52.711 64.0416 52.495 63.9611 52.309ZM52.6455 62.293V55C52.6455 53.897 53.5715 53 54.71 53H62.2382L52.6455 62.293Z" fill="#2C5282"/>
<path fill-rule="evenodd" clip-rule="evenodd" d="M27.8716 16.5H58.8392C60.2647 16.5 61.4198 17.619 61.4198 19V50H51.5489C50.4443 50 49.5489 50.8954 49.5489 52V61.5H27.8716C26.4461 61.5 25.291 60.381 25.291 59V19C25.291 17.619 26.4461 16.5 27.8716 16.5ZM31.3125 20C29.9823 20 28.9039 21.1193 28.9039 22.5C28.9039 23.8807 29.9823 25 31.3125 25H41.9103C43.2405 25 44.3188 23.8807 44.3188 22.5C44.3188 21.1193 43.2405 20 41.9103 20H31.3125ZM28.9039 29C28.9039 28.4477 29.3352 28 29.8673 28H56.8435C57.3756 28 57.8069 28.4477 57.8069 29C57.8069 29.5523 57.3756 30 56.8435 30H29.8673C29.3352 30 28.9039 29.5523 28.9039 29ZM29.8673 33C29.3352 33 28.9039 33.4477 28.9039 34C28.9039 34.5523 29.3352 35 29.8673 35H56.8435C57.3756 35 57.8069 34.5523 57.8069 34C57.8069 33.4477 57.3756 33 56.8435 33H29.8673ZM28.9039 39C28.9039 38.4477 29.3352 38 29.8673 38H56.8435C57.3756 38 57.8069 38.4477 57.8069 39C57.8069 39.5523 57.3756 40 56.8435 40H29.8673C29.3352 40 28.9039 39.5523 28.9039 39ZM29.8673 43C29.3352 43 28.9039 43.4477 28.9039 44C28.9039 44.5523 29.3352 45 29.8673 45H54.9166C55.4487 45 55.88 44.5523 55.88 44C55.88 43.4477 55.4487 43 54.9166 43H29.8673ZM28.9039 49C28.9039 48.4477 29.3352 48 29.8673 48H45.2823C45.8144 48 46.2457 48.4477 46.2457 49C46.2457 49.5523 45.8144 50 45.2823 50H29.8673C29.3352 50 28.9039 49.5523 28.9039 49ZM28.9039 55C28.9039 54.4477 29.3352 54 29.8673 54H40.4651C40.9972 54 41.4285 54.4477 41.4285 55C41.4285 55.5523 40.9972 56 40.4651 56H29.8673C29.3352 56 28.9039 55.5523 28.9039 55Z" fill="#E36B1F"/>
<path d="M20.1289 49H3.09675C1.95818 49 1.03225 48.103 1.03225 47V14C1.03225 13.724 0.801026 13.5 0.516125 13.5C0.231224 13.5 0 13.724 0 14V47C0 48.654 1.38941 50 3.09675 50H20.1289C20.4138 50 20.645 49.776 20.645 49.5C20.645 49.224 20.4138 49 20.1289 49Z" fill="#2C5282"/>
<path d="M0.516125 7.5C0.231224 7.5 0 7.724 0 8V11C0 11.276 0.231224 11.5 0.516125 11.5C0.801026 11.5 1.03225 11.276 1.03225 11V8C1.03225 7.724 0.801026 7.5 0.516125 7.5Z" fill="#2C5282"/>
<path d="M38.1933 0H3.09675C1.38941 0 0 1.346 0 3V5C0 5.276 0.231224 5.5 0.516125 5.5C0.801026 5.5 1.03225 5.276 1.03225 5V3C1.03225 1.897 1.95818 1 3.09675 1H38.1933C39.3318 1 40.2578 1.897 40.2578 3V12.5C40.2578 12.776 40.489 13 40.7739 13C41.0588 13 41.29 12.776 41.29 12.5V3C41.29 1.346 39.9006 0 38.1933 0Z" fill="#2C5282"/>
<path d="M42.8385 6H36.645C36.3601 6 36.1289 6.224 36.1289 6.5C36.1289 6.776 36.3601 7 36.645 7H42.8385C48.2455 7 52.6449 11.262 52.6449 16.5V22.5C52.6449 22.776 52.8761 23 53.161 23C53.4459 23 53.6772 22.776 53.6772 22.5V16.5C53.6772 10.71 48.8153 6 42.8385 6Z" fill="#2C5282"/>
<path d="M57.905 18.646C57.7037 18.451 57.3765 18.451 57.1752 18.646L53.1608 22.535L49.1464 18.646C48.9451 18.451 48.6179 18.451 48.4166 18.646C48.2153 18.841 48.2153 19.158 48.4166 19.353L52.7964 23.595C52.8976 23.693 53.0297 23.741 53.1618 23.741C53.294 23.741 53.4261 23.692 53.5273 23.595L57.9071 19.353C58.1074 19.158 58.1074 18.842 57.905 18.646Z" fill="#2C5282"/>
<path d="M26.3222 57.5H20.1287C14.7217 57.5 10.3223 53.238 10.3223 48V42C10.3223 41.724 10.0911 41.5 9.80616 41.5C9.52126 41.5 9.29004 41.724 9.29004 42V48C9.29004 53.79 14.1519 58.5 20.1287 58.5H26.3222C26.6071 58.5 26.8383 58.276 26.8383 58C26.8383 57.724 26.6071 57.5 26.3222 57.5Z" fill="#2C5282"/>
<path d="M14.5506 45.1461L10.1708 40.9041C9.96947 40.7091 9.64225 40.7091 9.44096 40.9041L5.06112 45.1461C4.85983 45.3411 4.85983 45.6581 5.06112 45.8531C5.26241 46.0481 5.58964 46.0481 5.79092 45.8531L9.80638 41.9651L13.8208 45.8541C13.922 45.9511 14.0541 46.0001 14.1862 46.0001C14.3183 46.0001 14.4505 45.9511 14.5516 45.8541C14.7529 45.6581 14.7529 45.3421 14.5506 45.1461Z" fill="#2C5282"/>
<path fill-rule="evenodd" clip-rule="evenodd" d="M8 5H7C5.89543 5 5 5.89543 5 7V36C5 37.1046 5.89543 38 7 38H16C17.1046 38 18 37.1046 18 36V12C18 10.8954 18.8954 10 20 10H30C31.1046 10 32 9.10457 32 8V7C32 5.89543 31.1046 5 30 5H18H8Z" fill="#2C5282"/>
</g>
</svg>
