<svg width="64" height="64" viewBox="0 0 64 64" fill="none" xmlns="http://www.w3.org/2000/svg">
<g opacity="0.86" clip-path="url(#clip0)">
<path d="M46 7C45.724 7 45.5 7.23296 45.5 7.52C45.5 7.80704 45.724 8.04 46 8.04C48.206 8.04 50 9.90576 50 12.2V14.28H43.5C43.224 14.28 43 14.513 43 14.8C43 15.087 43.224 15.32 43.5 15.32H50.5C50.776 15.32 51 15.087 51 14.8V12.2C51 9.33272 48.757 7 46 7Z" fill="#475569"/>
<path d="M32.5 40.8V38.2H6.5V40.8C6.5 43.3844 8.515 45.48 11 45.48H37C34.515 45.48 32.5 43.3844 32.5 40.8Z" fill="#475569"/>
<path d="M37 44.9599C34.794 44.9599 33 43.0942 33 40.7999V38.1999C33 37.9129 32.776 37.6799 32.5 37.6799H6.5C6.224 37.6799 6 37.9129 6 38.1999V40.7999C6 43.6672 8.243 45.9999 11 45.9999H37C37.276 45.9999 37.5 45.767 37.5 45.4799C37.5 45.1929 37.276 44.9599 37 44.9599ZM11 44.9599C8.794 44.9599 7 43.0942 7 40.7999V38.7199H32V40.7999C32 42.4993 32.788 44.0104 34.003 44.9599H11Z" fill="#475569"/>
<path d="M36.25 29.3601H20.25C19.974 29.3601 19.75 29.5931 19.75 29.8801C19.75 30.1671 19.974 30.4001 20.25 30.4001H36.25C36.526 30.4001 36.75 30.1671 36.75 29.8801C36.75 29.5931 36.526 29.3601 36.25 29.3601Z" fill="#475569"/>
<path d="M36.25 33.52H20.25C19.974 33.52 19.75 33.753 19.75 34.04C19.75 34.3271 19.974 34.56 20.25 34.56H36.25C36.526 34.56 36.75 34.3271 36.75 34.04C36.75 33.753 36.526 33.52 36.25 33.52Z" fill="#475569"/>
<path d="M36.25 25.2H20.25C19.974 25.2 19.75 25.4329 19.75 25.72C19.75 26.007 19.974 26.24 20.25 26.24H36.25C36.526 26.24 36.75 26.007 36.75 25.72C36.75 25.4329 36.526 25.2 36.25 25.2Z" fill="#475569"/>
<path d="M36.25 21.04H20.25C19.974 21.04 19.75 21.273 19.75 21.56C19.75 21.8471 19.974 22.08 20.25 22.08H36.25C36.526 22.08 36.75 21.8471 36.75 21.56C36.75 21.273 36.526 21.04 36.25 21.04Z" fill="#475569"/>
<path d="M15.5 17.0391C15.224 17.0391 15 17.272 15 17.5591V36.1199C15 36.407 15.224 36.6399 15.5 36.6399C15.776 36.6399 16 36.407 16 36.1199V17.5591C16 17.272 15.777 17.0391 15.5 17.0391Z" fill="#475569"/>
<path d="M46.0001 7.0249H21.1191C20.8431 7.0249 20.6191 7.25786 20.6191 7.5449C20.6191 7.83194 20.8431 8.0649 21.1191 8.0649H43.0031C41.7881 9.01442 41.0001 10.5255 41.0001 12.2249V40.3049C41.0001 42.7895 39.1221 44.8331 36.7251 44.9599C36.4501 44.9745 36.2371 45.2179 36.2511 45.5049C36.2641 45.7826 36.4851 45.9989 36.7501 45.9989C36.7581 45.9989 36.7671 45.9989 36.7751 45.9979C39.7051 45.846 42.0001 43.3438 42.0001 40.3049V12.2249C42.0001 9.93066 43.7941 8.0649 46.0001 8.0649C46.2761 8.0649 46.5001 7.83194 46.5001 7.5449C46.5001 7.25786 46.2761 7.0249 46.0001 7.0249Z" fill="#475569"/>
<path d="M64 38.05L64 31L56.449 31L56.449 38.25L59.0073 38.25L57.6869 44L61.9369 44L64 38.05Z" fill="#E36B1F"/>
<path d="M54.551 38.05L54.551 31L47 31L47 38.25L49.5583 38.25L48.2379 44L52.4879 44L54.551 38.05Z" fill="#E36B1F"/>
<path d="M0 5.95L0 13L7.55097 13L7.55097 5.75H4.99272L6.31311 0L2.06311 0L0 5.95Z" fill="#E36B1F"/>
<path d="M9.44903 5.95L9.44903 13H17V5.75H14.4417L15.7621 0L11.5121 0L9.44903 5.95Z" fill="#E36B1F"/>
<path fill-rule="evenodd" clip-rule="evenodd" d="M32 50C32.1589 50 32.3083 50.0755 32.4025 50.2034L35.1153 53.8847L38.7966 56.5975C38.9245 56.6917 39 56.8411 39 57C39 57.1589 38.9245 57.3083 38.7966 57.4025L35.1153 60.1153L32.4025 63.7966C32.3083 63.9245 32.1589 64 32 64C31.8411 64 31.6917 63.9245 31.5975 63.7966L28.8847 60.1153L25.2034 57.4025C25.0755 57.3083 25 57.1589 25 57C25 56.8411 25.0755 56.6917 25.2034 56.5975L28.8847 53.8847L31.5975 50.2034C31.6917 50.0755 31.8411 50 32 50ZM32 51.3428L29.6448 54.5389C29.615 54.5793 29.5793 54.615 29.5389 54.6448L26.3428 57L29.5389 59.3552C29.5793 59.385 29.615 59.4207 29.6448 59.4611L32 62.6572L34.3552 59.4611C34.385 59.4207 34.4207 59.385 34.4611 59.3552L37.6572 57L34.4611 54.6448C34.4207 54.615 34.385 54.5793 34.3552 54.5389L32 51.3428Z" fill="#475569"/>
<path fill-rule="evenodd" clip-rule="evenodd" d="M56.5 49C56.662 49 56.8137 49.0837 56.9053 49.2238L59.4054 53.0468L63.6476 54.3572C63.803 54.4052 63.9259 54.5304 63.9759 54.6919C64.026 54.8534 63.9969 55.0304 63.8981 55.165L61.2012 58.8382L61.3228 63.471C61.3272 63.6407 61.2515 63.8019 61.1204 63.9017C60.9893 64.0015 60.8197 64.0271 60.667 63.9702L56.5 62.4174L52.333 63.9702C52.1803 64.0271 52.0107 64.0015 51.8796 63.9017C51.7485 63.8019 51.6728 63.6407 51.6772 63.471L51.7988 58.8382L49.1019 55.165C49.0031 55.0304 48.974 54.8534 49.0241 54.6919C49.0741 54.5304 49.197 54.4052 49.3524 54.3572L53.5946 53.0468L56.0947 49.2238C56.1863 49.0837 56.338 49 56.5 49ZM56.5 50.4256L54.3063 53.7799C54.2424 53.8775 54.1484 53.9492 54.04 53.9826L50.3178 55.1325L52.6841 58.3554C52.753 58.4492 52.7889 58.5651 52.7858 58.6835L52.6792 62.7484L56.3354 61.3859C56.4419 61.3463 56.5581 61.3463 56.6646 61.3859L60.3208 62.7484L60.2142 58.6835C60.2111 58.5651 60.247 58.4492 60.3159 58.3554L62.6822 55.1325L58.96 53.9826C58.8516 53.9492 58.7576 53.8775 58.6937 53.7799L56.5 50.4256Z" fill="#475569"/>
<path d="M6.59633 50.2604C6.75745 49.9132 7.24253 49.9132 7.40364 50.2604L8.39273 52.3916C8.49732 52.617 8.76061 52.7146 8.98298 52.6104L11.0925 51.6221C11.4356 51.4613 11.8075 51.78 11.7106 52.1517L11.1186 54.4222C11.0556 54.6641 11.1964 54.9124 11.4336 54.9777L13.6699 55.5935C14.0353 55.6941 14.1197 56.1829 13.8099 56.4044L11.9183 57.7569C11.7169 57.9009 11.6679 58.1838 11.8088 58.3893L13.1298 60.3158C13.3464 60.6315 13.1034 61.0612 12.7266 61.0291L10.4138 60.8321C10.1694 60.8112 9.95429 60.9951 9.93199 61.2438L9.72195 63.5861C9.68765 63.9686 9.2317 64.1381 8.96344 63.868L7.31389 62.2072C7.13996 62.0321 6.86001 62.0321 6.68609 62.2072L5.03656 63.868C4.7683 64.1381 4.31237 63.9687 4.27805 63.5861L4.06795 61.2438C4.04564 60.9951 3.83051 60.8112 3.58611 60.8321L1.27341 61.0291C0.896553 61.0612 0.653621 60.6315 0.870127 60.3158L2.19116 58.3893C2.33206 58.1838 2.28309 57.9009 2.08166 57.7569L0.190092 56.4044C-0.119664 56.1829 -0.0352548 55.6941 0.330111 55.5935L2.56635 54.9777C2.8036 54.9124 2.9444 54.6641 2.88133 54.4222L2.2894 52.1517C2.19248 51.78 2.5644 51.4613 2.90752 51.622L5.01699 52.6104C5.23937 52.7146 5.50267 52.617 5.60726 52.3916L6.59633 50.2604Z" fill="#E36B1F"/>
</g>
<defs>
<clipPath id="clip0">
<rect width="64" height="64" fill="white"/>
</clipPath>
</defs>
</svg>
