<svg width="64" height="65" viewBox="0 0 64 65" fill="none" xmlns="http://www.w3.org/2000/svg">
<g opacity="0.86">
<path d="M19.1152 0H11.1152C10.2882 0 9.61523 0.678296 9.61523 1.5118V11.5905C9.61523 11.8687 9.83923 12.0944 10.1152 12.0944C10.3912 12.0944 10.6152 11.8687 10.6152 11.5905V1.5118C10.6152 1.23464 10.8402 1.00787 11.1152 1.00787H19.1152C19.3902 1.00787 19.6152 1.23464 19.6152 1.5118V11.5905C19.6152 11.8687 19.8392 12.0944 20.1152 12.0944C20.3912 12.0944 20.6152 11.8687 20.6152 11.5905V1.5118C20.6152 0.678296 19.9422 0 19.1152 0Z" fill="#475569"/>
<path d="M20.1152 3.02368H10.1152C9.83923 3.02368 9.61523 3.24944 9.61523 3.52762C9.61523 3.80579 9.83823 4.03155 10.1152 4.03155H20.1152C20.3912 4.03155 20.6152 3.80579 20.6152 3.52762C20.6152 3.24944 20.3912 3.02368 20.1152 3.02368Z" fill="#475569"/>
<path d="M12 6H18V9H12V6Z" fill="#E36B1F"/>
<path d="M25 6H31V9H25V6Z" fill="#E36B1F"/>
<path d="M32.1152 0H24.1152C23.2882 0 22.6152 0.678296 22.6152 1.5118V11.5905C22.6152 11.8687 22.8392 12.0944 23.1152 12.0944C23.3912 12.0944 23.6152 11.8687 23.6152 11.5905V1.5118C23.6152 1.23464 23.8402 1.00787 24.1152 1.00787H32.1152C32.3902 1.00787 32.6152 1.23464 32.6152 1.5118V11.5905C32.6152 11.8687 32.8392 12.0944 33.1152 12.0944C33.3912 12.0944 33.6152 11.8687 33.6152 11.5905V1.5118C33.6152 0.678296 32.9422 0 32.1152 0Z" fill="#475569"/>
<path d="M33.1152 3.02368H23.1152C22.8392 3.02368 22.6152 3.24944 22.6152 3.52762C22.6152 3.80579 22.8382 4.03155 23.1152 4.03155H33.1152C33.3912 4.03155 33.6152 3.80579 33.6152 3.52762C33.6152 3.24944 33.3912 3.02368 33.1152 3.02368Z" fill="#475569"/>
<path d="M36.8648 50.3312H31.6688V36.2265C31.6688 35.5495 31.1612 35 30.5358 35H22.4642C21.8388 35 21.3312 35.5495 21.3312 36.2265V50.3312H16.1352C15.1257 50.3312 14.6204 51.6522 15.3342 52.4249L25.699 63.6449C26.142 64.1244 26.8592 64.1244 27.301 63.6449L37.6658 52.4249C38.3796 51.6522 37.8743 50.3312 36.8648 50.3312Z" fill="#E36B1F"/>
<path d="M12.5522 49.3856H15.0837H7.61523C6.51223 49.3856 5.61523 48.4815 5.61523 47.3698V39.8108C5.61523 39.5326 5.39123 39.3069 5.11523 39.3069C4.83923 39.3069 4.61523 39.5326 4.61523 39.8108V47.3698C4.61523 49.0369 5.96123 50.3934 7.61523 50.3934H12.5532C12.8292 50.3934 13.0532 50.1677 13.0532 49.8895C13.0532 49.6113 12.8292 49.3856 12.5522 49.3856Z" fill="#475569"/>
<path d="M5.11523 33.2598C4.83923 33.2598 4.61523 33.4855 4.61523 33.7637V36.7873C4.61523 37.0655 4.83923 37.2912 5.11523 37.2912C5.39123 37.2912 5.61523 37.0655 5.61523 36.7873V33.7637C5.61523 33.4855 5.39123 33.2598 5.11523 33.2598Z" fill="#475569"/>
<path d="M5.11523 28.2205C4.83923 28.2205 4.61523 28.4462 4.61523 28.7244V30.7401C4.61523 31.0183 4.83923 31.2441 5.11523 31.2441C5.39123 31.2441 5.61523 31.0183 5.61523 30.7401V28.7244C5.61523 28.4462 5.39123 28.2205 5.11523 28.2205Z" fill="#475569"/>
<path d="M58.1138 28.2205C57.8378 28.2205 57.6138 28.4462 57.6138 28.7244V47.37C57.6138 48.4817 56.7168 49.3857 55.6138 49.3857H40.6758C40.3998 49.3857 40.1758 49.6115 40.1758 49.8896C40.1758 50.1678 40.3998 50.3936 40.6758 50.3936H55.6138C57.2678 50.3936 58.6138 49.037 58.6138 47.37V28.7244C58.6138 28.4462 58.3898 28.2205 58.1138 28.2205Z" fill="#475569"/>
<path d="M55.5 5.03931C50.813 5.03931 47 8.88231 47 13.6062C47 18.3301 50.813 22.1731 55.5 22.1731C60.187 22.1731 64 18.3301 64 13.6062C64 8.88231 60.186 5.03931 55.5 5.03931ZM55.5 21.1652C51.364 21.1652 48 17.7747 48 13.6062C48 9.43765 51.364 6.04718 55.5 6.04718C59.636 6.04718 63 9.43765 63 13.6062C63 17.7747 59.635 21.1652 55.5 21.1652Z" fill="#475569"/>
<path d="M63.1501 27.2377L61.3191 21.6994C61.2311 21.4354 60.9481 21.2943 60.6861 21.3809C60.4241 21.4696 60.2831 21.7549 60.3701 22.0189L62.2011 27.5572C62.2531 27.7124 62.2271 27.8777 62.1331 28.0117C62.0371 28.1447 61.8891 28.2203 61.7271 28.2203H38.4161C37.5541 28.2203 36.7911 27.666 36.5191 26.8426L32.3081 14.1102H45.1151C45.3911 14.1102 45.6151 13.8844 45.6151 13.6062C45.6151 13.3281 45.3911 13.1023 45.1151 13.1023H31.6151C31.4541 13.1023 31.3031 13.1799 31.2101 13.3119C31.1151 13.443 31.0901 13.6123 31.1411 13.7655L35.5711 27.1611C35.9791 28.3977 37.1221 29.2282 38.4161 29.2282H61.7271C62.2151 29.2282 62.6591 28.9994 62.9441 28.6003C63.2291 28.2012 63.3041 27.7043 63.1501 27.2377Z" fill="#475569"/>
<path d="M31.6144 13.1023C31.7754 13.1023 31.9254 13.1799 32.0194 13.3119C32.1144 13.443 32.1394 13.6123 32.0894 13.7655L27.6584 27.1611C27.2494 28.3977 26.1054 29.2282 24.8114 29.2282H1.50041C1.01241 29.2282 0.56941 28.9994 0.28441 28.6003C-0.000589669 28.2012 -0.0755897 27.7043 0.0784103 27.2377L4.06841 15.1694C4.47741 13.9328 5.62141 13.1023 6.91541 13.1023H31.6144Z" fill="#475569"/>
<path d="M31.6152 13.1023C31.3392 13.1023 31.1152 13.3281 31.1152 13.6062V30.6469C31.1152 30.9251 31.3392 31.1509 31.6152 31.1509C31.8912 31.1509 32.1152 30.9251 32.1152 30.6469V13.6062C32.1152 13.3281 31.8912 13.1023 31.6152 13.1023Z" fill="#475569"/>
<path d="M55.1152 31.2439C54.8392 31.2439 54.6152 31.4697 54.6152 31.7478V46.8659C54.6152 47.144 54.8392 47.3698 55.1152 47.3698C55.3912 47.3698 55.6152 47.144 55.6152 46.8659V31.7478C55.6152 31.4697 55.3912 31.2439 55.1152 31.2439Z" fill="#475569"/>
<path d="M57.2655 10.2595C57.5127 9.97877 57.8134 9.83013 58.1677 9.8136C58.5302 9.78884 58.798 9.87141 58.971 10.0613C59.1852 10.2761 59.2965 10.5362 59.3047 10.8417C59.313 11.1473 59.1935 11.457 58.9463 11.7708C58.7238 12.0268 58.4602 12.2126 58.1553 12.3282C57.8587 12.4438 57.5621 12.547 57.2655 12.6379C56.9771 12.7205 56.7382 12.8526 56.5487 13.0343C56.4333 13.1664 56.3757 13.2738 56.3757 13.3563C56.3757 13.4389 56.4416 13.505 56.5734 13.5545C56.8453 13.6784 57.2531 13.7486 57.7969 13.7651C58.349 13.7734 58.8145 13.8601 59.1935 14.0252C59.5313 14.1656 59.7661 14.401 59.8979 14.7313C60.0298 15.0616 60.0339 15.3548 59.9103 15.6108C59.7785 15.8751 59.5642 16.0567 59.2676 16.1558C58.971 16.2549 58.6415 16.2384 58.2789 16.1063C58.0317 15.9989 57.8134 15.8544 57.6239 15.6727C57.4426 15.4911 57.3026 15.3176 57.2037 15.1525C57.1131 14.9873 56.9895 14.818 56.8329 14.6446C56.6764 14.4629 56.5075 14.3225 56.3262 14.2234C56.3097 14.2152 56.285 14.2069 56.2521 14.1987C56.2273 14.1821 56.1779 14.1615 56.1038 14.1367C56.0378 14.112 55.9966 14.1161 55.9802 14.1491C55.9307 14.1739 55.8978 14.24 55.8813 14.3473C55.8483 14.6446 55.906 15.0534 56.0543 15.5736C56.2109 16.0939 56.2685 16.5605 56.2273 16.9734C56.1944 17.3367 56.042 17.6299 55.7701 17.8529C55.5064 18.0676 55.2386 18.1625 54.9667 18.1378C54.6701 18.0882 54.4229 17.9355 54.2252 17.6795C54.0275 17.4235 53.9451 17.1138 53.978 16.7504C54.0192 16.321 54.2128 15.8751 54.5589 15.4126C54.9132 14.9501 55.115 14.5785 55.1645 14.2978C55.181 14.1326 55.1645 14.017 55.115 13.9509C55.0986 13.9096 55.0244 13.9014 54.8926 13.9261C54.6042 13.9922 54.2334 14.178 53.7803 14.4836C53.3271 14.7809 52.8987 14.9749 52.4949 15.0658C52.1324 15.1483 51.807 15.0988 51.5186 14.9171C51.2385 14.7272 51.0696 14.4959 51.0119 14.2234C50.9707 13.9261 51.0366 13.6454 51.2096 13.3811C51.3909 13.1168 51.6628 12.9434 52.0253 12.8609C52.3549 12.7865 52.6721 12.7906 52.977 12.8732C53.29 12.9476 53.5949 13.0343 53.8915 13.1334C54.1881 13.2325 54.4641 13.2655 54.7196 13.2325C54.9173 13.2159 55.0244 13.1664 55.0409 13.0838C55.0574 13.0343 55.0244 12.9434 54.942 12.8113C54.7937 12.5553 54.5053 12.2621 54.0769 11.9318C53.6485 11.5932 53.3271 11.2423 53.1129 10.8789C52.9316 10.5321 52.8822 10.1976 52.9646 9.87554C53.0552 9.55347 53.22 9.32638 53.459 9.19425C53.6979 9.05386 53.978 9.03321 54.2994 9.13231C54.6207 9.22315 54.8761 9.42547 55.0656 9.73927C55.2386 10.0366 55.3334 10.3463 55.3499 10.6683C55.3746 10.9904 55.3828 11.3042 55.3746 11.6097C55.3663 11.9153 55.4199 12.1837 55.5352 12.4149C55.6176 12.5801 55.7 12.6709 55.7824 12.6874C55.8648 12.6874 55.939 12.6544 56.0049 12.5883C56.2109 12.3654 56.4045 11.9979 56.5858 11.4859C56.767 10.9739 56.9936 10.5651 57.2655 10.2595Z" fill="#E36B1F"/>
</g>
</svg>
