<svg width="64" height="64" viewBox="0 0 64 64" fill="none" xmlns="http://www.w3.org/2000/svg">
<g opacity="0.86">
<path d="M34.5 2H29.5C28.673 2 28 2.673 28 3.5V4.5C28 4.776 28.224 5 28.5 5C28.776 5 29 4.776 29 4.5V3.5C29 3.225 29.225 3 29.5 3H34.5C34.775 3 35 3.225 35 3.5V33.5C35 33.776 35.224 34 35.5 34C35.776 34 36 33.776 36 33.5V3.5C36 2.673 35.327 2 34.5 2Z" fill="#2C5282"/>
<path d="M28.5 7C28.224 7 28 7.224 28 7.5V10.5C28 10.776 28.224 11 28.5 11C28.776 11 29 10.776 29 10.5V7.5C29 7.224 28.776 7 28.5 7Z" fill="#2C5282"/>
<path d="M28.5 13C28.224 13 28 13.224 28 13.5V33.5C28 33.776 28.224 34 28.5 34C28.776 34 29 33.776 29 33.5V13.5C29 13.224 28.776 13 28.5 13Z" fill="#2C5282"/>
<path d="M53.812 25.109L48.812 21.109C48.723 21.039 48.613 21 48.5 21H35.5C35.224 21 35 21.224 35 21.5V29.5C35 29.776 35.224 30 35.5 30H48.5C48.613 30 48.724 29.961 48.812 29.891L53.812 25.891C53.93 25.796 54 25.653 54 25.5C54 25.347 53.931 25.204 53.812 25.109ZM48.324 29H36V22H48.324L52.699 25.5L48.324 29Z" fill="#2C5282"/>
<path d="M28.5 13H5.5C5.387 13 5.276 13.039 5.188 13.109L0.188 17.109C0.07 17.204 0 17.347 0 17.5C0 17.653 0.069 17.796 0.188 17.891L5.188 21.891C5.277 21.961 5.387 22 5.5 22H28.5C28.776 22 29 21.776 29 21.5V13.5C29 13.224 28.776 13 28.5 13ZM28 21H5.676L1.301 17.5L5.676 14H28V21Z" fill="#2C5282"/>
<path fill-rule="evenodd" clip-rule="evenodd" d="M0.5 17.5L5.5 13.5H28.5V21.5H5.5L0.5 17.5ZM10.437 17H22.437C22.714 17 22.937 17.224 22.937 17.5C22.937 17.776 22.713 18 22.437 18H10.437C10.161 18 9.93701 17.776 9.93701 17.5C9.93701 17.224 10.161 17 10.437 17Z" fill="#2C5282"/>
<path fill-rule="evenodd" clip-rule="evenodd" d="M36 6H58.5893L62 9.5L58.5893 13H36V6ZM43.5 9H55.5C55.776 9 56 9.224 56 9.5C56 9.776 55.776 10 55.5 10H43.5C43.224 10 43 9.776 43 9.5C43 9.224 43.224 9 43.5 9Z" fill="#E36B1F"/>
<path d="M58.9474 5.65104C58.8533 5.55447 58.7241 5.5 58.5893 5.5H36C35.7239 5.5 35.5 5.72386 35.5 6V13C35.5 13.2761 35.7239 13.5 36 13.5H59C59.146 13.5 59.2846 13.4362 59.3796 13.3254L62.3796 9.8254C62.548 9.62891 62.5387 9.33638 62.3581 9.15104L58.9474 5.65104Z" stroke="#2C5282" stroke-linejoin="round"/>
<path d="M21 0C19.621 0 18.5 1.121 18.5 2.5C18.5 2.776 18.724 3 19 3C19.276 3 19.5 2.776 19.5 2.5C19.5 1.673 20.173 1 21 1C21.827 1 22.5 1.673 22.5 2.5C22.5 3.327 21.827 4 21 4C20.724 4 20.5 4.224 20.5 4.5V5.5C20.5 5.776 20.724 6 21 6C21.276 6 21.5 5.776 21.5 5.5V4.95C22.64 4.718 23.5 3.707 23.5 2.5C23.5 1.121 22.379 0 21 0Z" fill="#2C5282"/>
<path d="M21 8.25C21.4142 8.25 21.75 7.91421 21.75 7.5C21.75 7.08579 21.4142 6.75 21 6.75C20.5858 6.75 20.25 7.08579 20.25 7.5C20.25 7.91421 20.5858 8.25 21 8.25Z" fill="#2C5282"/>
<path d="M48.5 35C40.505 35 34 41.505 34 49.5C34 57.495 40.505 64 48.5 64C56.495 64 63 57.495 63 49.5C63 41.505 56.495 35 48.5 35ZM48.5 61C42 61 37 56 37 49.5C37 43 42 38 48.5 38C56 38 60 43 60 49.5C60 56 55 61 48.5 61Z" fill="#2C5282"/>
<path d="M48.501 39.0005C42.7116 39.0005 38.001 43.7111 38.001 49.5005C38.001 55.2899 42.7116 60.0005 48.501 60.0005C54.2903 60.0005 59.001 55.2899 59.001 49.5005C59.001 43.7111 54.2903 39.0005 48.501 39.0005ZM48.501 58.8952C43.3206 58.8952 39.1062 54.6809 39.1062 49.5005C39.1062 44.3201 43.3206 40.1058 48.501 40.1058C53.6813 40.1058 57.8957 44.3201 57.8957 49.5005C57.8957 54.6809 53.6813 58.8952 48.501 58.8952Z" fill="#2C5282"/>
<path d="M47.0859 48.086L49.9139 50.9141L53.4499 44.55L47.0859 48.086Z" fill="#E36B1F"/>
<path d="M50.2684 50.5612L47.4404 47.7332C47.3294 47.6222 47.1714 47.5682 47.0174 47.5912C46.8624 47.6122 46.7254 47.7062 46.6494 47.8432L43.1134 54.2072C43.0054 54.4022 43.0394 54.6452 43.1974 54.8032C43.2934 54.8992 43.4224 54.9492 43.5514 54.9492C43.6344 54.9492 43.7184 54.9282 43.7944 54.8862L50.1584 51.3502C50.2954 51.2742 50.3884 51.1382 50.4104 50.9822C50.4324 50.8262 50.3794 50.6712 50.2684 50.5612ZM44.8374 53.1632L47.2014 48.9092L49.0924 50.8002L44.8374 53.1632Z" fill="#2C5282"/>
<path fill-rule="evenodd" clip-rule="evenodd" d="M8 39L14.4599 50.2974C14.5428 50.3964 14.5888 50.5263 14.5888 50.6613V62L17.5559 59.4431V50.6613C17.5559 50.5278 17.6009 50.3991 17.6823 50.3004L27 39H8Z" fill="#E36B1F"/>
<path fill-rule="evenodd" clip-rule="evenodd" d="M1.04504 37.3373C1.13072 37.1324 1.32443 37 1.53847 37H28.4615C28.6748 37 28.868 37.1315 28.9541 37.3354C29.0403 37.5392 29.0031 37.7769 28.8594 37.9415L17.8139 50.593V59.875C17.8139 60.0484 17.7373 60.2121 17.6064 60.3187L13.2292 63.8812C13.0669 64.0133 12.8467 64.0372 12.6619 63.9429C12.477 63.8486 12.3598 63.6524 12.3598 63.4375V50.5955L1.14342 37.9447C0.997982 37.7807 0.959355 37.5422 1.04504 37.3373ZM2.77113 38.125L13.2933 49.9928C13.3855 50.0968 13.4367 50.2333 13.4367 50.375V62.2862L16.737 59.6002V50.375C16.737 50.2348 16.7871 50.0996 16.8776 49.996L27.2417 38.125H2.77113Z" fill="#2C5282"/>
</g>
</svg>
