<svg width="64" height="64" viewBox="0 0 64 64" fill="none" xmlns="http://www.w3.org/2000/svg">
<g opacity="0.86">
<path fill-rule="evenodd" clip-rule="evenodd" d="M44.617 8.74994C45.458 8.27894 46.373 7.92994 47.335 7.72794C53.803 6.37094 59.5 11.2709 59.5 17.4999C59.5 20.0849 58.509 22.4229 56.893 24.1859C55.44 25.7729 54.5 27.7579 54.5 29.9089V30.4999H50V24.708L52.683 22.026C52.877 21.83 52.877 21.514 52.682 21.318C52.487 21.123 52.17 21.123 51.975 21.318L49.5 23.793L47.025 21.318C46.83 21.123 46.513 21.123 46.318 21.318C46.123 21.5131 46.123 21.83 46.318 22.025L49 24.707V30.4999H44.5V29.9059C44.5 27.7669 43.579 25.7829 42.13 24.2109C40.085 21.9919 39.031 18.8589 39.703 15.4669C39.86 14.6769 40.115 13.9169 40.455 13.2009C40.568 12.9629 40.69 12.7289 40.822 12.5009C40.995 12.2009 41.183 11.9109 41.386 11.6309C41.744 11.1349 42.148 10.6719 42.59 10.2499C43.198 9.66794 43.88 9.16294 44.617 8.74994ZM49 30.4999V30.5C49 30.776 49.224 31 49.5 31C49.776 31 50 30.776 50 30.5V30.4999H49ZM49 10.5C49 10.224 49.224 10 49.5 10C53.636 10 57 13.364 57 17.5C57 17.776 56.776 18 56.5 18C56.224 18 56 17.776 56 17.5C56 13.916 53.084 11 49.5 11C49.224 11 49 10.776 49 10.5Z" fill="#E36B1F"/>
<path fill-rule="evenodd" clip-rule="evenodd" d="M49.5 1C49.224 1 49 1.224 49 1.5V4.5C49 4.776 49.224 5 49.5 5C49.776 5 50 4.776 50 4.5V1.5C50 1.224 49.776 1 49.5 1ZM43.854 5.14594L42.44 3.73194C42.245 3.53694 41.928 3.53694 41.733 3.73194C41.538 3.92694 41.538 4.24394 41.733 4.43894L43.147 5.85294C43.244 5.95094 43.372 5.99994 43.5 5.99994C43.628 5.99994 43.756 5.95094 43.854 5.85394C44.049 5.65794 44.049 5.34194 43.854 5.14594ZM56.561 3.73194C56.756 3.53694 57.073 3.53694 57.268 3.73194C57.463 3.92794 57.463 4.24394 57.268 4.43994L55.854 5.85394C55.756 5.95094 55.628 5.99994 55.5 5.99994C55.372 5.99994 55.244 5.95094 55.147 5.85294C54.952 5.65794 54.952 5.34094 55.147 5.14594L56.561 3.73194ZM39 9H36C35.724 9 35.5 9.224 35.5 9.5C35.5 9.776 35.724 10 36 10H39C39.276 10 39.5 9.776 39.5 9.5C39.5 9.224 39.276 9 39 9ZM60 9H63C63.276 9 63.5 9.224 63.5 9.5C63.5 9.776 63.276 10 63 10H60C59.724 10 59.5 9.776 59.5 9.5C59.5 9.224 59.724 9 60 9Z" fill="#475569"/>
<path fill-rule="evenodd" clip-rule="evenodd" d="M2.5 8H21.5C22.881 8 24 9.12 24 10.5V19.089C20.845 21.228 18.419 24.349 17.122 28H2.5C1.119 28 0 26.881 0 25.5V10.5C0 9.12 1.119 8 2.5 8ZM6.14602 15.354C6.04243 15.2503 5.99386 15.1123 6.00033 14.9764C6.00603 14.8565 6.0546 14.7384 6.14602 14.6469L8.14602 12.6469C8.34101 12.452 8.65801 12.452 8.85302 12.6469C9.04801 12.842 9.04801 13.1589 8.85302 13.354L7.70701 14.5H17.5C17.776 14.5 18 14.724 18 15C18 15.276 17.776 15.5 17.5 15.5H7.70702L8.85401 16.6469C9.04902 16.842 9.04902 17.1589 8.85401 17.354C8.75602 17.4509 8.62801 17.5 8.50001 17.5C8.37201 17.5 8.24401 17.4509 8.14602 17.354L6.14602 15.354ZM6.50001 20.5H16.294L15.147 19.353C14.952 19.1579 14.952 18.841 15.147 18.646C15.342 18.451 15.659 18.451 15.854 18.646L17.854 20.646C18.049 20.842 18.049 21.1579 17.854 21.354L15.854 23.354C15.756 23.451 15.628 23.5 15.5 23.5C15.372 23.5 15.244 23.451 15.147 23.352C14.952 23.157 14.952 22.8399 15.147 22.645L16.292 21.5H6.50001C6.224 21.5 6.00001 21.276 6.00001 21C6.00001 20.724 6.224 20.5 6.50001 20.5Z" fill="#E36B1F"/>
<path fill-rule="evenodd" clip-rule="evenodd" d="M44.5 30H54.5C54.776 30 55 30.224 55 30.5V35.5C55 38.532 52.533 41 49.5 41C46.467 41 44 38.532 44 35.5V30.5C44 30.224 44.224 30 44.5 30ZM45.0276 36C45.2772 38.2467 47.188 40 49.5 40C51.812 40 53.7228 38.2467 53.9724 36H45.0276ZM54 35H45V31H54V35Z" fill="#475569"/>
<path d="M61.871 57.1344L61.598 56.9766C61.7031 56.5006 61.7623 56.0088 61.7623 55.5012C61.7623 54.9936 61.7031 54.5019 61.598 54.0259L61.871 53.868L62.7948 53.052C63.011 52.8614 63.0629 52.5432 62.9192 52.2931L61.7236 50.2106C61.5799 49.9592 61.2804 49.8463 61.0075 49.9386L59.8433 50.3344L59.5668 50.4947C58.8458 49.8293 57.9859 49.3156 57.0295 49.0133V48.7L56.7879 47.4881C56.7312 47.204 56.4824 47 56.195 47H53.8038C53.5164 47 53.2676 47.204 53.2121 47.4881L52.9705 48.7V49.0121C52.0141 49.3144 51.1542 49.8293 50.4333 50.4935L50.1567 50.3332L48.9925 49.9374C48.7196 49.8439 48.4201 49.958 48.2764 50.2094L47.0808 52.2919C46.9371 52.542 46.989 52.8601 47.2052 53.0508L48.129 53.8668L48.402 54.0246C48.2969 54.5006 48.2377 54.9924 48.2377 55.5C48.2377 56.0064 48.2969 56.4994 48.402 56.9754L48.129 57.1332L47.2064 57.9492C46.9902 58.1399 46.9383 58.458 47.082 58.7081L48.2776 60.7906C48.4213 61.0408 48.7208 61.1549 48.9937 61.0626L50.1579 60.6668L50.4345 60.5065C51.1554 61.1719 52.0153 61.6856 52.9717 61.9879V62.3L53.2133 63.5119C53.2676 63.796 53.5152 64 53.8038 64H56.195C56.4824 64 56.7312 63.796 56.7867 63.5119L57.0283 62.3V61.9879C57.9847 61.6856 58.8446 61.1707 59.5655 60.5065L59.8421 60.6668L61.0063 61.0626C61.2792 61.1549 61.5787 61.042 61.7224 60.7906L62.918 58.7081C63.0617 58.458 63.0098 58.1399 62.7936 57.9492L61.871 57.1344Z" fill="#475569"/>
<path d="M34.0723 36C36.2814 36 38.0723 34.2091 38.0723 32C38.0723 29.7909 36.2814 28 34.0723 28C31.8631 28 30.0723 29.7909 30.0723 32C30.0723 34.2091 31.8631 36 34.0723 36Z" fill="#475569"/>
<path d="M47.1932 42.002C46.9312 41.915 46.6482 42.056 46.5612 42.318C45.8572 44.424 44.8152 46.374 43.4652 48.11L41.7322 50.339C40.9852 51.298 40.5732 52.497 40.5732 53.715V61.5C40.5732 61.776 40.7972 62 41.0732 62C41.3492 62 41.5732 61.776 41.5732 61.5V53.716C41.5732 52.72 41.9092 51.739 42.5212 50.953L44.2542 48.724C45.6742 46.899 46.7702 44.85 47.5092 42.635C47.5962 42.373 47.4552 42.09 47.1932 42.002Z" fill="#475569"/>
<path d="M37.6601 17.902C36.4571 17.636 35.2501 17.5 34.0721 17.5C24.9741 17.5 17.5721 24.902 17.5721 34.001V34.842L12.7761 41.636C12.4521 42.095 12.4111 42.691 12.6701 43.191C12.9291 43.69 13.4391 44.001 14.0021 44.001H18.5721V50.001C18.5721 53.033 21.0391 55.501 24.0721 55.501H26.5721C27.6751 55.501 28.5721 56.398 28.5721 57.501V61.501C28.5721 61.777 28.7961 62.001 29.0721 62.001C29.3481 62.001 29.5721 61.777 29.5721 61.501V57.501C29.5721 55.847 28.2261 54.501 26.5721 54.501H24.0721C21.5911 54.501 19.5721 52.482 19.5721 50.001V43.5C19.5721 43.224 19.3481 43 19.0721 43H14.0021C13.8121 43 13.6461 42.899 13.5581 42.73C13.4711 42.561 13.4841 42.367 13.5941 42.211L18.4811 35.287C18.5411 35.203 18.5721 35.102 18.5721 34.999V34C18.5721 25.453 25.5251 18.499 34.0721 18.499C35.1771 18.499 36.3121 18.626 37.4431 18.878C37.7141 18.939 37.9801 18.769 38.0401 18.498C38.0991 18.229 37.9291 17.962 37.6601 17.902Z" fill="#475569"/>
<path d="M42.5003 31.5H40.0723C39.7963 31.5 39.5723 31.724 39.5723 32C39.5723 32.276 39.7963 32.5 40.0723 32.5H42.5003C42.7763 32.5 43.0003 32.276 43.0003 32C43.0003 31.724 42.7763 31.5 42.5003 31.5Z" fill="#475569"/>
<path d="M28.0723 31.5H25.0723C24.7963 31.5 24.5723 31.724 24.5723 32C24.5723 32.276 24.7963 32.5 25.0723 32.5H28.0723C28.3483 32.5 28.5723 32.276 28.5723 32C28.5723 31.724 28.3483 31.5 28.0723 31.5Z" fill="#475569"/>
</g>
</svg>
