<svg width="64" height="64" viewBox="0 0 64 64" fill="none" xmlns="http://www.w3.org/2000/svg">
<g opacity="0.86">
<path d="M54.5 59.4546H16.5C15.948 59.4546 15.5 59.9071 15.5 60.4647V62.4849C15.5 63.0425 15.948 63.495 16.5 63.495H54.5C55.052 63.495 55.5 63.0425 55.5 62.4849V60.4647C55.5 59.9071 55.053 59.4546 54.5 59.4546Z" fill="#475569"/>
<path d="M54.5 58.9495H16.5C15.673 58.9495 15 59.6293 15 60.4646V62.4848C15 63.3202 15.673 64 16.5 64H54.5C55.327 64 56 63.3202 56 62.4848V60.4646C56 59.6293 55.327 58.9495 54.5 58.9495ZM55 62.4848C55 62.7636 54.775 62.9899 54.5 62.9899H16.5C16.224 62.9899 16 62.7636 16 62.4848V60.4646C16 60.1858 16.224 59.9596 16.5 59.9596H54.5C54.775 59.9596 55 60.1858 55 60.4646V62.4848Z" fill="#475569"/>
<path d="M40.5 23.0908C38.019 23.0908 36 25.1302 36 27.6363C36 30.1423 38.019 32.1817 40.5 32.1817C42.981 32.1817 45 30.1423 45 27.6363C45 25.1302 42.981 23.0908 40.5 23.0908ZM40.5 31.1716C38.57 31.1716 37 29.5858 37 27.6363C37 25.6868 38.57 24.1009 40.5 24.1009C42.43 24.1009 44 25.6868 44 27.6363C44 29.5858 42.43 31.1716 40.5 31.1716Z" fill="#475569"/>
<path d="M37.5 52.8889H33.5C33.224 52.8889 33 53.1152 33 53.394V59.4546C33 59.7334 33.224 59.9596 33.5 59.9596H37.5C37.776 59.9596 38 59.7334 38 59.4546V53.394C38 53.1152 37.776 52.8889 37.5 52.8889ZM37 58.9495H34V53.899H37V58.9495Z" fill="#475569"/>
<path d="M46.719 27.1069C46.565 27.0271 46.383 27.0756 46.236 27.1685C46.089 27.2614 46 27.3837 46 27.6362C46 27.8887 46.273 28.0099 46.273 28.0099C50.73 30.2554 53.5 34.7564 53.5 39.7574C53.5 46.9978 47.668 52.8887 40.5 52.8887H26V50.8685H40.5C46.565 50.8685 51.5 45.8837 51.5 39.7574C51.5 35.816 49.39 32.1332 45.993 30.1443C45.756 30.0039 45.448 30.0857 45.309 30.3281C45.17 30.5695 45.252 30.8786 45.491 31.018C48.581 32.8271 50.5 36.1756 50.5 39.7574C50.5 45.3271 46.014 49.8584 40.5 49.8584H25.5C25.224 49.8584 25 50.0847 25 50.3635V53.3938C25 53.6725 25.224 53.8988 25.5 53.8988H40.5C48.22 53.8988 54.5 47.5554 54.5 39.7574C54.5 34.3715 51.519 29.5241 46.719 27.1069Z" fill="#475569"/>
<path d="M20.5 45.5C20.224 45.5 20 45.724 20 46V49C20 49.276 20.224 49.5 20.5 49.5C20.776 49.5 21 49.276 21 49V46C21 45.724 20.777 45.5 20.5 45.5Z" fill="#475569"/>
<path d="M18.8735 33.1629C18.7135 32.9389 18.4005 32.8859 18.1765 33.0469L14.8365 35.4319C14.6115 35.5919 14.5595 35.9049 14.7205 36.1289C14.8185 36.2659 14.9715 36.3379 15.1275 36.3379C15.2285 36.3379 15.3295 36.3079 15.4175 36.2449L18.7575 33.8599C18.9815 33.6999 19.0335 33.3869 18.8735 33.1629Z" fill="#475569"/>
<path d="M11.5 36.5H7.5C7.224 36.5 7 36.724 7 37C7 37.276 7.224 37.5 7.5 37.5H11.5C11.777 37.5 12 37.277 12 37C12 36.723 11.777 36.5 11.5 36.5Z" fill="#475569"/>
<path d="M19.4373 42.2298L15.2673 38.0598C15.0723 37.8648 14.7553 37.8648 14.5603 38.0598C14.3653 38.2548 14.3653 38.5718 14.5603 38.7668L18.7303 42.9368C18.8283 43.0348 18.9563 43.0828 19.0843 43.0828C19.2123 43.0828 19.3403 43.0338 19.4383 42.9368C19.6333 42.7418 19.6333 42.4258 19.4373 42.2298Z" fill="#475569"/>
<path d="M19.1838 44.7191C19.0518 44.4761 18.7458 44.3871 18.5058 44.5191L11.8948 48.1251C11.6518 48.2571 11.5628 48.5611 11.6948 48.8031C11.7858 48.9701 11.9568 49.0641 12.1338 49.0641C12.2148 49.0641 12.2968 49.0441 12.3728 49.0031L18.9838 45.3971C19.2268 45.2651 19.3158 44.9611 19.1838 44.7191Z" fill="#475569"/>
<path d="M13.5 34.5C12.122 34.5 11 35.622 11 37C11 38.378 12.122 39.5 13.5 39.5C14.878 39.5 16 38.378 16 37C16 35.622 14.879 34.5 13.5 34.5ZM13.5 38.5C12.673 38.5 12 37.828 12 37C12 36.172 12.673 35.5 13.5 35.5C14.327 35.5 15 36.173 15 37C15 37.827 14.328 38.5 13.5 38.5Z" fill="#475569"/>
<path d="M20.5 41.5C19.122 41.5 18 42.622 18 44C18 45.378 19.122 46.5 20.5 46.5C21.878 46.5 23 45.378 23 44C23 42.622 21.879 41.5 20.5 41.5ZM20.5 45.5C19.673 45.5 19 44.827 19 44C19 43.173 19.673 42.5 20.5 42.5C21.327 42.5 22 43.173 22 44C22 44.827 21.328 45.5 20.5 45.5Z" fill="#475569"/>
<path d="M9.5 46.5C7.57 46.5 6 48.07 6 50C6 51.93 7.571 53.5 9.5 53.5C11.429 53.5 13 51.93 13 50C13 48.07 11.43 46.5 9.5 46.5Z" fill="#E36B1F"/>
<path d="M20.5 29C18.846 29 17.5 30.346 17.5 32C17.5 33.654 18.846 35 20.5 35C22.154 35 23.5 33.654 23.5 32C23.5 30.346 22.155 29 20.5 29ZM20.5 34C19.397 34 18.5 33.103 18.5 32C18.5 30.897 19.397 30 20.5 30C21.603 30 22.5 30.897 22.5 32C22.5 33.103 21.604 34 20.5 34Z" fill="#475569"/>
<path d="M20.5 24C20.224 24 20 24.224 20 24.5V29.5C20 29.776 20.224 30 20.5 30C20.776 30 21 29.777 21 29.5V24.5C21 24.224 20.777 24 20.5 24Z" fill="#475569"/>
<path d="M50.5 12.5C53.8137 12.5 56.5 9.81371 56.5 6.5C56.5 3.18629 53.8137 0.5 50.5 0.5C47.1863 0.5 44.5 3.18629 44.5 6.5C44.5 9.81371 47.1863 12.5 50.5 12.5Z" fill="#E36B1F"/>
<path d="M57.8427 3.94093C57.4981 3.89893 57.1613 4.07693 57.1009 4.34993C57.0417 4.62193 57.277 4.87994 57.6267 4.92694C61.7796 5.47794 62.7143 6.26793 62.7143 6.49993C62.7143 7.17894 58.402 8.49994 50.5 8.49994C42.598 8.49994 38.2857 7.17894 38.2857 6.49993C38.2857 6.26693 39.2204 5.47794 43.3733 4.92594C43.723 4.87994 43.9583 4.62093 43.8991 4.34893C43.8387 4.07693 43.5044 3.89694 43.1573 3.93994C40.348 4.31394 37 5.06093 37 6.49993C37 8.56094 43.9981 9.49994 50.5 9.49994C57.0019 9.49994 64 8.56193 64 6.49993C64 5.05993 60.652 4.31393 57.8427 3.94093Z" fill="#475569"/>
<path d="M52.5 17C52.224 17 52 17.224 52 17.5V21.5C52 21.776 52.224 22 52.5 22C52.776 22 53 21.776 53 21.5V17.5C53 17.224 52.776 17 52.5 17Z" fill="#475569"/>
<path d="M54.5 19H50.5C50.224 19 50 19.224 50 19.5C50 19.776 50.224 20 50.5 20H54.5C54.776 20 55 19.776 55 19.5C55 19.224 54.776 19 54.5 19Z" fill="#475569"/>
<path fill-rule="evenodd" clip-rule="evenodd" d="M38 14H33C32.724 14 32.5 14.2263 32.5 14.5051V16.5674C31.0831 16.8086 30 18.0569 30 19.5556V35.7172C30 37.2159 31.0831 38.4642 32.5 38.7054V41.2728C32.5 41.5516 32.724 41.7778 33 41.7778H38C38.276 41.7778 38.5 41.5516 38.5 41.2728V38.7054C39.9169 38.4642 41 37.2159 41 35.7172V33.697C41 33.4182 40.776 33.1919 40.5 33.1919C40.2309 33.1919 40.0112 33.4071 40.0004 33.6762C36.9202 33.4198 34.5 30.8139 34.5 27.6363C34.5 24.4588 36.921 21.8529 40.0004 21.5964C40.0111 21.8666 40.2308 22.0808 40.5 22.0808C40.776 22.0808 41 21.8546 41 21.5758V19.5556C41 18.0569 39.9169 16.8086 38.5 16.5674V14.5051C38.5 14.2263 38.276 14 38 14ZM37.5 16.5253H33.5V15.0101H37.5V16.5253ZM37.5 40.7677H33.5V38.7475H37.5V40.7677ZM32.3182 19H38.6818C38.8575 19 39 19.2263 39 19.5051C39 19.7838 38.8575 20.0101 38.6818 20.0101H32.3182C32.1425 20.0101 32 19.7838 32 19.5051C32 19.2263 32.1425 19 32.3182 19ZM32.3182 35.1616H38.6818C38.8575 35.1616 39 35.3879 39 35.6667C39 35.9455 38.8575 36.1717 38.6818 36.1717H32.3182C32.1425 36.1717 32 35.9455 32 35.6667C32 35.3879 32.1425 35.1616 32.3182 35.1616Z" fill="#E36B1F"/>
<path d="M3.73146 24.3003C4.49194 25.4852 4.65148 26.9816 4.15817 28.3025L3.10856 31.1129C3.03264 31.3162 3.0972 31.5463 3.26802 31.6806C3.43639 31.8129 3.67681 31.8237 3.85771 31.7023L7.59088 29.1864C9.86248 27.6543 11.1806 25.1054 11.1163 22.3679L11.1019 21.7605C11.0875 21.1445 10.7045 20.6065 10.1265 20.3906L6.62101 19.0814C6.11795 18.8935 5.54903 18.9906 5.13715 19.3332L4.40412 19.9411C3.11588 21.0153 2.82719 22.8887 3.73146 24.3003Z" fill="#E36B1F"/>
<path d="M6.58588 17.5255C6.52359 17.7723 6.65689 18.027 6.89577 18.1162L10.643 19.5157C10.8818 19.6049 11.1491 19.5009 11.2642 19.2727L17.4267 7.06525L18.5571 3.1727C18.6294 2.91898 18.4952 2.65534 18.2525 2.56473C18.2404 2.56018 18.2291 2.55598 18.2166 2.55237C17.9516 2.47583 17.6737 2.62824 17.5963 2.89285L16.5003 6.69898L10.5744 18.4216L7.66568 17.3352L10.8442 4.68583L12.5288 1.03552C12.6447 0.785248 12.5342 0.486707 12.2835 0.371757C12.0366 0.261366 11.736 0.365817 11.6201 0.616089L9.90486 4.35423L6.58588 17.5255Z" fill="#475569"/>
</g>
</svg>
