<svg width="64" height="64" viewBox="0 0 64 64" fill="none" xmlns="http://www.w3.org/2000/svg">
<g opacity="0.86">
<path d="M59 26C58.724 26 58.5 26.233 58.5 26.52C58.5 26.807 58.724 27.04 59 27.04C61.206 27.04 63 28.9058 63 31.2V33.28H56.5C56.224 33.28 56 33.513 56 33.8C56 34.087 56.224 34.32 56.5 34.32H63.5C63.776 34.32 64 34.087 64 33.8V31.2C64 28.3327 61.757 26 59 26Z" fill="#2C5282"/>
<path d="M45.5 58.8V56.2H19.5V58.8C19.5 61.3844 21.515 63.48 24 63.48H50C47.515 63.48 45.5 61.3844 45.5 58.8Z" fill="#2C5282"/>
<path d="M50 62.9599C47.794 62.9599 46 61.0942 46 58.7999V56.1999C46 55.9129 45.776 55.6799 45.5 55.6799H19.5C19.224 55.6799 19 55.9129 19 56.1999V58.7999C19 61.6672 21.243 63.9999 24 63.9999H50C50.276 63.9999 50.5 63.767 50.5 63.4799C50.5 63.1929 50.276 62.9599 50 62.9599ZM24 62.9599C21.794 62.9599 20 61.0942 20 58.7999V56.7199H45V58.7999C45 60.4993 45.788 62.0104 47.003 62.9599H24Z" fill="#2C5282"/>
<path d="M49.25 47.3601H33.25C32.974 47.3601 32.75 47.5931 32.75 47.8801C32.75 48.1671 32.974 48.4001 33.25 48.4001H49.25C49.526 48.4001 49.75 48.1671 49.75 47.8801C49.75 47.5931 49.526 47.3601 49.25 47.3601Z" fill="#2C5282"/>
<path d="M49.25 51.52H33.25C32.974 51.52 32.75 51.753 32.75 52.04C32.75 52.3271 32.974 52.56 33.25 52.56H49.25C49.526 52.56 49.75 52.3271 49.75 52.04C49.75 51.753 49.526 51.52 49.25 51.52Z" fill="#2C5282"/>
<path d="M49.25 43.2H33.25C32.974 43.2 32.75 43.4329 32.75 43.72C32.75 44.007 32.974 44.24 33.25 44.24H49.25C49.526 44.24 49.75 44.007 49.75 43.72C49.75 43.4329 49.526 43.2 49.25 43.2Z" fill="#2C5282"/>
<path d="M49.25 39.04H33.25C32.974 39.04 32.75 39.273 32.75 39.56C32.75 39.8471 32.974 40.08 33.25 40.08H49.25C49.526 40.08 49.75 39.8471 49.75 39.56C49.75 39.273 49.526 39.04 49.25 39.04Z" fill="#2C5282"/>
<path d="M28.5 39.0391C28.224 39.0391 28 39.272 28 39.5591V54.1199C28 54.407 28.224 54.6399 28.5 54.6399C28.776 54.6399 29 54.407 29 54.1199V39.5591C29 39.272 28.777 39.0391 28.5 39.0391Z" fill="#2C5282"/>
<path d="M59.0001 26.0249H38.1191C37.8431 26.0249 37.6191 26.2579 37.6191 26.5449C37.6191 26.8319 37.8431 27.0649 38.1191 27.0649H56.0031C54.7881 28.0144 54.0001 29.5255 54.0001 31.2249V58.3049C54.0001 60.7895 52.1221 62.8331 49.7251 62.9599C49.4501 62.9745 49.2371 63.2179 49.2511 63.5049C49.2641 63.7826 49.4851 63.9989 49.7501 63.9989C49.7581 63.9989 49.7671 63.9989 49.7751 63.9979C52.7051 63.846 55.0001 61.3438 55.0001 58.3049V31.2249C55.0001 28.9307 56.7941 27.0649 59.0001 27.0649C59.2761 27.0649 59.5001 26.8319 59.5001 26.5449C59.5001 26.2579 59.2761 26.0249 59.0001 26.0249Z" fill="#2C5282"/>
<path fill-rule="evenodd" clip-rule="evenodd" d="M10 15.0766H8.5H5.5H4.5C3.119 15.0766 2 16.1956 2 17.5766V18C0.895431 18 0 18.8954 0 20V24C0 25.1046 0.895431 26 2 26V26.5766C2 27.7863 2.8587 28.795 4 29.0266V37C4 37.552 4.448 38 5 38H7C7.552 38 8 37.552 8 37V33H10.219C10.87 33 11.347 32.388 11.189 31.757L10.5706 29.2826L26.66 35.0926C27.312 35.3276 28 34.8446 28 34.1516V25.0767C29.6569 25.0767 31 23.7335 31 22.0767C31 20.4198 29.6569 19.0767 28 19.0767V10.0006C28 9.30757 27.312 8.82457 26.66 9.06057L10 15.0766ZM6 18C6 17.4477 6.44772 17 7 17C7.55228 17 8 17.4477 8 18V26C8 26.5523 7.55228 27 7 27C6.44772 27 6 26.5523 6 26V18ZM24.5 13C24.2239 13 24 13.2238 24 13.5V31.5C24 31.7761 24.2239 32 24.5 32C24.7761 32 25 31.7761 25 31.5V13.5C25 13.2238 24.7761 13 24.5 13ZM36.3533 12.2239C36.1582 12.0289 35.8413 12.0289 35.6463 12.2239L32.6463 15.2239C32.4512 15.4189 32.4512 15.7359 32.6463 15.9309C32.7443 16.0289 32.8722 16.0769 33.0003 16.0769C33.1283 16.0769 33.2562 16.0279 33.3543 15.9309L36.3543 12.9309C36.5482 12.7349 36.5483 12.4189 36.3533 12.2239ZM34.2676 21.5767H40.2676C40.5436 21.5767 40.7676 21.8007 40.7676 22.0767C40.7676 22.3527 40.5436 22.5767 40.2676 22.5767H34.2676C33.9916 22.5767 33.7676 22.3527 33.7676 22.0767C33.7676 21.8007 33.9916 21.5767 34.2676 21.5767ZM33.3533 28.2239L36.3533 31.2239C36.5483 31.4189 36.5482 31.7349 36.3543 31.9309C36.2562 32.0279 36.1283 32.0769 36.0003 32.0769C35.8722 32.0769 35.7443 32.0289 35.6463 31.9309L32.6463 28.9309C32.4512 28.7359 32.4512 28.4189 32.6463 28.2239C32.8413 28.0289 33.1582 28.0289 33.3533 28.2239Z" fill="#E36B1F"/>
<path d="M59 7.79615L59 4L54.5583 4L54.5583 7.90385L56.0631 7.90385L55.2864 11L57.7864 11L59 7.79615Z" fill="#E36B1F"/>
<path d="M53.4417 7.79615L53.4417 4L49 4L49 7.90385L50.5049 7.90385L49.7282 11L52.2282 11L53.4417 7.79615Z" fill="#E36B1F"/>
<path fill-rule="evenodd" clip-rule="evenodd" d="M44 0.527777C44 0.236294 44.2239 0 44.5 0H63.5C63.7761 0 64 0.236294 64 0.527777V14.8833C64 15.1748 63.7761 15.4111 63.5 15.4111H48.3731L44.8394 18.8597C44.6936 19.0021 44.4817 19.0398 44.2996 18.9558C44.1176 18.8717 44 18.6819 44 18.4722V0.527777ZM45 1.05555V17.2655L47.838 14.4958C47.9304 14.4056 48.0516 14.3555 48.1774 14.3555H63V1.05555H45Z" fill="#2C5282"/>
</g>
</svg>
