<?xml version="1.0" standalone="no"?>
<!DOCTYPE svg PUBLIC "-//W3C//DTD SVG 20010904//EN"
 "http://www.w3.org/TR/2001/REC-SVG-20010904/DTD/svg10.dtd">
<svg version="1.0" xmlns="http://www.w3.org/2000/svg"
 width="200.000000pt" height="60.000000pt" viewBox="0 0 147.000000 30.000000"
 preserveAspectRatio="xMidYMid meet">

<g transform="translate(0.000000,30.000000) scale(0.100000,-0.100000)"
fill="#000000" stroke="none">
<path d="M21 286 c2 -2 31 -20 65 -39 56 -32 63 -33 87 -20 53 27 25 4 -73
-62 l-100 -68 0 -43 0 -44 143 0 142 0 -63 35 c-71 40 -73 40 -112 20 -56 -29
-30 -8 75 61 l105 69 0 48 0 47 -137 0 c-75 0 -134 -2 -132 -4z"/>
<path d="M330 150 l0 -140 105 0 105 0 0 30 0 30 -65 0 c-63 0 -65 1 -65 25 0
24 2 25 65 25 l65 0 0 30 0 30 -65 0 c-63 0 -65 1 -65 25 0 24 2 25 65 25 l65
0 0 30 0 30 -105 0 -105 0 0 -140z"/>
<path d="M590 150 l0 -140 35 0 34 0 3 81 3 81 58 -81 c53 -74 61 -81 93 -81
l34 0 0 140 0 140 -35 0 -34 0 -3 -77 -3 -78 -54 78 c-51 74 -55 77 -92 77
l-39 0 0 -140z"/>
<path d="M910 150 l0 -140 89 0 c75 0 93 3 122 23 42 28 59 60 59 115 0 54
-22 97 -63 122 -25 16 -50 20 -119 20 l-88 0 0 -140z m171 61 c18 -14 24 -29
24 -60 0 -52 -20 -72 -79 -78 l-46 -6 0 82 0 81 39 0 c23 0 48 -8 62 -19z"/>
<path d="M1180 285 c0 -2 23 -39 50 -81 46 -70 50 -82 50 -135 l0 -59 40 0 40
0 0 58 c0 51 5 66 50 137 l49 80 -30 3 c-44 5 -56 -2 -79 -48 -11 -22 -24 -40
-29 -40 -5 0 -21 20 -35 45 -25 41 -30 45 -66 45 -22 0 -40 -2 -40 -5z"/>
</g>
</svg>
