<svg width="134" height="46" viewBox="0 0 134 46" fill="none" xmlns="http://www.w3.org/2000/svg">
<path d="M38.5995 21.3223C38.8178 21.3391 39.8002 21.2971 41.5466 21.1963C43.3098 21.0955 44.4937 21.003 45.0981 20.9188C45.5349 20.8853 45.7531 20.6162 45.7531 20.1119C45.7531 18.7668 45.5012 17.5899 44.9975 16.5812C44.4937 15.5723 43.7212 15.068 42.68 15.068C41.9915 15.068 41.3619 15.3118 40.7908 15.7994C40.2367 16.2701 39.8085 16.8585 39.5063 17.5647C39.2039 18.2708 38.9773 18.9518 38.8263 19.6075C38.6751 20.2631 38.5995 20.8349 38.5995 21.3223ZM38.5492 23.3399C38.5492 24.6849 38.7254 25.8786 39.0782 26.9211C39.4307 27.9635 39.8588 28.779 40.3627 29.3674C40.8833 29.9558 41.4793 30.4434 42.151 30.8301C42.8227 31.2001 43.4357 31.4523 43.9898 31.5868C44.544 31.7043 45.0813 31.7632 45.6019 31.7632C47.8354 31.7632 49.7162 30.9226 51.2443 29.2412C51.4121 29.2918 51.5548 29.4177 51.6724 29.6196C51.79 29.8045 51.8489 29.9812 51.8489 30.1492C51.8489 30.6368 51.7984 30.9563 51.6976 31.1076C51.4289 31.5278 51.0428 31.9902 50.539 32.4945C50.0352 32.9821 49.397 33.5034 48.6248 34.0582C47.8522 34.613 46.9286 35.0752 45.8538 35.4452C44.7959 35.8151 43.7044 36 42.5794 36C40.6817 36 38.9352 35.5881 37.3401 34.7643C35.7447 33.9405 34.4517 32.7216 33.461 31.1076C32.4868 29.4767 32 27.5937 32 25.4583C32 23.3737 32.5206 21.3729 33.5616 19.4562C34.6195 17.5227 36.0134 15.9675 37.7431 14.7906C39.4896 13.5969 41.303 13 43.1838 13C44.4432 13 45.5852 13.1765 46.6096 13.5296C47.6506 13.8658 48.4903 14.303 49.1283 14.841C49.7832 15.3791 50.329 15.9927 50.7657 16.682C51.2191 17.3714 51.5381 18.0439 51.7229 18.6996C51.9076 19.3552 52 19.9942 52 20.6162C52 21.171 51.8657 21.6587 51.597 22.079C51.3283 22.4993 51.0091 22.7179 50.6398 22.7347C47.6171 23.0037 43.5868 23.2054 38.5492 23.3399Z" fill="#2C5282"/>
<path d="M71.1774 13C72.3398 13 73.3312 13.1704 74.1515 13.5111C74.972 13.8348 75.6386 14.3033 76.1512 14.9167C76.6811 15.513 77.0913 16.3222 77.3819 17.3444C77.6726 18.3667 77.8691 19.4826 77.9717 20.6921C78.0913 21.8848 78.1511 23.3415 78.1511 25.0621V28.3844C78.1511 30.9058 78.2878 32.5073 78.5613 33.1888C78.7321 33.6487 79.826 33.9554 81.8429 34.1089C81.9626 34.2962 82.0139 34.6198 81.9968 35.0799C81.9968 35.5398 81.9456 35.8465 81.8429 36C79.5014 35.7614 77.1598 35.6421 74.8182 35.6421C72.8868 35.6421 70.7502 35.7614 68.4086 36C68.306 35.8465 68.2462 35.5398 68.229 35.0799C68.229 34.6198 68.289 34.2962 68.4086 34.1089C69.998 33.9895 70.8869 33.6828 71.0749 33.1888C71.3484 32.5073 71.4851 30.9058 71.4851 28.3844V24.3466C71.4851 19.5422 70.34 17.14 68.0496 17.14C67.0754 17.14 66.0756 17.4807 65.0499 18.1622C64.0416 18.8437 63.5373 19.457 63.5373 20.0021V28.3844C63.5373 30.9058 63.674 32.5073 63.9475 33.1888C64.1356 33.6658 65.1099 33.9726 66.8704 34.1089C66.9898 34.2962 67.0413 34.6198 67.0242 35.0799C67.0242 35.5398 66.9728 35.8465 66.8704 36C64.5285 35.7614 62.3066 35.6421 60.2044 35.6421C57.8628 35.6421 55.5212 35.7614 53.1794 36C53.077 35.8465 53.017 35.5398 53 35.0799C53 34.6198 53.0599 34.2962 53.1794 34.1089C55.1964 33.9554 56.2902 33.6487 56.4611 33.1888C56.7346 32.5073 56.8713 30.9058 56.8713 28.3844V22.5065C56.8713 20.2918 56.7175 18.8948 56.4099 18.3156C56.239 17.9919 55.7518 17.7448 54.9484 17.5744C54.1624 17.387 53.5725 17.2933 53.1794 17.2933C53.0941 17.2422 53.0512 16.9696 53.0512 16.4756C53.0512 15.9644 53.1112 15.7089 53.2309 15.7089C55.0084 15.5726 56.8286 15.2319 58.6917 14.6867C60.5717 14.1415 62.0845 13.5793 63.2297 13C63.3835 13 63.5628 13.1107 63.7681 13.3322C63.9901 13.5537 64.1013 13.7326 64.1013 13.8689C64.0672 13.9881 64.0074 14.2863 63.9219 14.7633C63.8363 15.2404 63.7595 15.6919 63.6911 16.1178C63.6228 16.5437 63.5887 16.7652 63.5887 16.7822C63.5887 16.9526 63.6057 17.0548 63.6399 17.0889C63.7081 17.0889 63.8278 17.0037 63.9989 16.8333C64.802 15.9304 65.9218 15.07 67.3574 14.2522C68.8103 13.4174 70.0836 13 71.1774 13Z" fill="#2C5282"/>
<path d="M94.3199 12.7511C95.1947 12.7511 95.9228 12.7852 96.506 12.8535C96.6878 12.8535 96.7796 12.4609 96.7796 11.6757C96.7796 11.6757 96.7796 10.1223 96.7796 7.01565C96.7796 5.95732 96.6518 5.13798 96.3971 4.55762C96.2693 4.28451 95.8139 4.06258 95.03 3.8919C94.247 3.72119 93.6089 3.63585 93.1175 3.63585C93.0446 3.63585 92.9897 3.51635 92.9537 3.27739C92.9168 3.02133 92.9078 2.76529 92.9258 2.50926C92.9627 2.23614 93.0266 2.06543 93.1175 1.99715C94.265 1.89472 95.4035 1.75817 96.533 1.58748C97.6625 1.4168 98.6282 1.24609 99.4301 1.07538C100.25 0.887631 100.979 0.716921 101.616 0.563299C102.254 0.392602 102.746 0.256045 103.092 0.153627C103.457 0.051208 103.648 0 103.666 0C103.811 0.0170686 103.976 0.136557 104.158 0.358462C104.341 0.563299 104.449 0.734007 104.486 0.870566C104.085 2.40682 103.885 4.13086 103.885 6.04267V30.0598C103.885 31.0155 104.049 31.6642 104.377 32.0057C104.704 32.347 105.524 32.5179 106.836 32.5179C106.945 32.6201 107 32.8421 107 33.1834C107 33.5249 106.89 33.8492 106.672 34.1565C105.743 34.2418 104.54 34.4382 103.065 34.7454C101.589 35.0355 100.296 35.3087 99.1844 35.5647C98.0909 35.8209 97.4537 35.9489 97.271 35.9489C97.1432 35.9489 97.0253 35.8293 96.9164 35.5903C96.8246 35.3684 96.7796 35.0781 96.7796 34.7199V33.9005C96.7796 33.6615 96.7247 33.5761 96.6158 33.6444C94.1741 35.2148 91.9331 36 89.8928 36C87.2324 36 84.9191 34.9671 82.9514 32.9018C80.9839 30.8364 80 28.3187 80 25.3485C80 23.6928 80.337 22.1481 81.0112 20.7141C81.6851 19.2802 82.5505 18.0939 83.6074 17.155C84.664 16.1991 85.839 15.3798 87.1325 14.697C88.4258 14.0142 89.6831 13.5192 90.9035 13.2119C92.1428 12.9047 93.2813 12.7511 94.3199 12.7511ZM92.5163 15.3627C91.4048 15.3627 90.476 15.7383 89.729 16.4893C89 17.2404 88.4897 18.1792 88.1981 19.3059C87.9065 20.4154 87.7607 21.6956 87.7607 23.1465C87.7607 25.9972 88.262 28.3101 89.2637 30.0855C90.2663 31.8436 91.6055 32.7226 93.2813 32.7226C94.0103 32.7226 94.7753 32.5006 95.5772 32.0569C96.3782 31.5961 96.7796 31.1864 96.7796 30.8278V17.6672C96.7796 17.1721 96.3422 16.6685 95.4674 16.1565C94.5935 15.6273 93.6089 15.3627 92.5163 15.3627Z" fill="#2C5282"/>
<path d="M113.176 13.3495C115.507 13.3495 117.682 13.2329 119.703 13C119.84 13.1331 119.909 13.441 119.909 13.9236C119.909 14.3896 119.84 14.6974 119.703 14.8472C119.236 14.8472 118.606 14.9803 117.812 15.2466C117.035 15.5128 116.646 15.829 116.646 16.1952C116.646 16.528 116.681 16.7776 116.75 16.944L122.084 26.779C123.673 23.4175 125.037 20.5052 126.176 18.0424C126.556 17.3101 126.746 16.6944 126.746 16.1952C126.746 15.9123 126.582 15.671 126.254 15.4713C125.926 15.2715 125.521 15.1301 125.037 15.0468C124.554 14.9637 124.156 14.9137 123.846 14.8971C123.535 14.8638 123.276 14.8472 123.069 14.8472C122.948 14.7307 122.879 14.4395 122.861 13.9735C122.861 13.4909 122.913 13.1664 123.017 13C124.83 13.2329 126.642 13.3495 128.455 13.3495C130.233 13.3495 132.029 13.2329 133.842 13C133.945 13.1331 133.997 13.4326 133.997 13.8986C134.014 14.3479 133.963 14.6641 133.842 14.8472C133.496 14.8472 133.081 14.8805 132.598 14.947C132.133 14.997 131.58 15.1634 130.941 15.4463C130.302 15.7125 129.871 16.0621 129.646 16.4947C126.124 23.7004 123.276 29.4917 121.101 33.8684C120.911 34.2678 120.565 34.9833 120.065 36.0151C119.564 37.0468 119.201 37.7624 118.977 38.1618C118.77 38.5779 118.442 39.1353 117.993 39.8342C117.544 40.5499 117.061 41.2156 116.543 41.8312C114.229 44.6104 112.037 46 109.965 46C108.93 46 108.092 45.7337 107.453 45.2012C106.815 44.6853 106.495 44.0695 106.495 43.354C106.495 42.3222 106.893 41.54 107.686 41.0074C109.913 41.0074 111.639 40.7578 112.865 40.2588C114.109 39.7594 115.23 38.711 116.232 37.1134C116.75 36.2648 117.354 35.0833 118.044 33.5687L109.448 16.7443C109.154 16.0953 108.636 15.621 107.894 15.3215C107.168 15.0053 106.599 14.8472 106.185 14.8472C106.046 14.6309 105.986 14.3147 106.003 13.8986C106.003 13.466 106.063 13.1664 106.185 13C108.273 13.2329 110.604 13.3495 113.176 13.3495Z" fill="#2C5282"/>
<path fill-rule="evenodd" clip-rule="evenodd" d="M5 30C9 26.9609 22 24 29 25L35 7L29 8L26 21C21 22 8 26 5 30Z" fill="#E36B1F"/>
<path d="M0 34C0 14 27.5 2 29 2L24 19C15 21 4 27 0 34Z" fill="#2C5282"/>
<path fill-rule="evenodd" clip-rule="evenodd" d="M0 36.009H26L27 28.009C24.8989 25.9075 23.5 27.5091 23 29.0089C22.5 30.5087 22 32.0087 15 32.0087H3C2 33.0087 1 34.009 0 36.009Z" fill="#2C5282"/>
<path d="M0.999999 2.30159e-05H29.0002C26 1 23 2 19 4.00033H12C5.00006 4.00034 4.50001 5.50031 4.00001 7.0001C3.50001 8.49991 2.10112 10.1015 0 8L0.999999 2.30159e-05Z" fill="#2C5282"/>
</svg>
